<?xml version="1.0" encoding="utf-8"?>
<!-- Generator: Adobe Illustrator 19.2.0, SVG Export Plug-In . SVG Version: 6.00 Build 0)  -->
<svg version="1.1" id="Layer_1" xmlns="http://www.w3.org/2000/svg" xmlns:xlink="http://www.w3.org/1999/xlink" x="0px" y="0px"
	 viewBox="0 0 40 45" style="enable-background:new 0 0 40 45;" xml:space="preserve">
<g>
	<path d="M20,41c-0.2,0-0.3,0-0.4-0.1C19,40.5,6,30.8,6,20c0-8.6,6-15,14-15s14,6.4,14,15c0,10.8-13,20.5-13.6,20.9
		C20.3,41,20.2,41,20,41z M20,6.5C12.9,6.5,7.5,12.3,7.5,20c0,8.9,10.3,17.5,12.5,19.3c2.3-1.8,12.5-10.4,12.5-19.3
		C32.5,12.3,27.1,6.5,20,6.5z"/>
	<path d="M20,27.5c-4.5,0-8.1-3.7-8.1-8.2S15.5,11,20,11s8.1,3.7,8.1,8.3C28.1,23.8,24.5,27.5,20,27.5z M20,12.5
		c-3.7,0-6.6,3-6.6,6.7s3,6.8,6.6,6.8s6.6-3,6.6-6.8C26.6,15.5,23.7,12.5,20,12.5z"/>
</g>
</svg>
