<?xml version="1.0" encoding="utf-8"?>
<!-- Generator: Adobe Illustrator 19.2.0, SVG Export Plug-In . SVG Version: 6.00 Build 0)  -->
<svg version="1.1" id="Layer_1" xmlns="http://www.w3.org/2000/svg" xmlns:xlink="http://www.w3.org/1999/xlink" x="0px" y="0px"
	 viewBox="0 0 40 45" style="enable-background:new 0 0 40 45;" xml:space="preserve">
<g>
	<path d="M35.2,29H5.8c-1.8,0-3.3-1.4-3.3-3.2V8.2C2.5,6.4,4,5,5.8,5h29.5c1.8,0,3.3,1.4,3.3,3.2v17.6C38.5,27.6,37,29,35.2,29z
		 M5.8,6.6c-0.9,0-1.6,0.7-1.6,1.6v17.6c0,0.9,0.7,1.6,1.6,1.6h29.5c0.9,0,1.6-0.7,1.6-1.6V8.2c0-0.9-0.7-1.6-1.6-1.6H5.8z"/>
	<path d="M20.5,20.2c-0.2,0-0.4-0.1-0.5-0.2L3.6,7.2C3.3,6.9,3.2,6.4,3.5,6.1C3.8,5.8,4.3,5.7,4.6,6l15.9,12.4L36.4,6
		c0.4-0.3,0.9-0.2,1.2,0.1c0.3,0.3,0.2,0.8-0.1,1.1L21,20C20.9,20.1,20.7,20.2,20.5,20.2z"/>
</g>
</svg>
