<?xml version="1.0" encoding="utf-8"?>
<!-- Generator: Adobe Illustrator 19.2.0, SVG Export Plug-In . SVG Version: 6.00 Build 0)  -->
<svg version="1.1" id="Layer_1" xmlns="http://www.w3.org/2000/svg" xmlns:xlink="http://www.w3.org/1999/xlink" x="0px" y="0px"
	 viewBox="0 0 40 45" style="enable-background:new 0 0 40 45;" xml:space="preserve">
<g>
	<path d="M28.9,38c-1.1,0-2.2-0.3-3.1-0.9C17.1,31.4,9.6,23.8,3.9,15.3C2.5,13,2.8,10,4.7,8.1l1.9-1.9c1.5-1.5,4.2-1.5,5.7,0
		l3.5,3.5c1.6,1.6,1.6,4.1,0,5.7l0,0l-0.7,0.7c2.9,3.5,6.3,6.9,9.8,9.8l0.7-0.7c0.8-0.8,1.8-1.2,2.9-1.2l0,0c1.1,0,2.1,0.4,2.9,1.2
		l3.5,3.5c0.8,0.8,1.2,1.8,1.2,2.9s-0.4,2.1-1.2,2.9L33,36.4C31.8,37.4,30.3,38,28.9,38z M9.4,6.4c-0.7,0-1.3,0.3-1.8,0.8L5.7,9.1
		c-1.4,1.4-1.7,3.7-0.5,5.4c5.6,8.4,13,15.8,21.4,21.4c1.7,1.1,3.9,0.9,5.4-0.5l1.9-1.9c0.5-0.5,0.8-1.1,0.8-1.8s-0.3-1.3-0.8-1.8
		l-3.5-3.5c-0.5-0.5-1.1-0.8-1.8-0.8l0,0c-0.7,0-1.3,0.3-1.8,0.8l-1.2,1.2c-0.3,0.3-0.7,0.3-1,0c-3.9-3.2-7.7-7-10.9-10.9
		c-0.2-0.3-0.2-0.7,0-1l1.2-1.2c1-1,1-2.7,0-3.7l-3.5-3.5C10.8,6.7,10.1,6.4,9.4,6.4z M15.3,14.9L15.3,14.9L15.3,14.9z"/>
</g>
</svg>
